<?xml version="1.0" encoding="UTF-8" standalone="no"?>
<svg
   xmlns:dc="http://purl.org/dc/elements/1.1/"
   xmlns:cc="http://creativecommons.org/ns#"
   xmlns:rdf="http://www.w3.org/1999/02/22-rdf-syntax-ns#"
   xmlns:svg="http://www.w3.org/2000/svg"
   xmlns="http://www.w3.org/2000/svg"
   viewBox="0 0 1632 1056"
   height="1056"
   width="1632"
   xml:space="preserve"
   id="svg2"
   version="1.1"><metadata
     id="metadata8"><rdf:RDF><cc:Work
         rdf:about=""><dc:format>image/svg+xml</dc:format><dc:type
           rdf:resource="http://purl.org/dc/dcmitype/StillImage" /></cc:Work></rdf:RDF></metadata><defs
     id="defs6"><clipPath
       id="clipPath18"
       clipPathUnits="userSpaceOnUse"><path
         id="path16"
         d="M 0,792 H 1224 V 0 H 0 Z" /></clipPath></defs><g
     transform="matrix(1.3333333,0,0,-1.3333333,0,1056)"
     id="g10"><g
       id="g12"><g
         clip-path="url(#clipPath18)"
         id="g14"><g
           transform="translate(339.2207,391.3748)"
           id="g20"><path
             id="path22"
             style="fill:#00adee;fill-opacity:1;fill-rule:nonzero;stroke:none"
             d="m 0,0 v -39.715 h 7.253 c 9.973,0 16.774,6.981 16.774,19.585 v 0.454 C 24.027,-7.072 17.226,0 7.253,0 Z M -13.148,11.877 H 7.343 c 18.407,0 30.284,-12.692 30.284,-31.282 v -0.815 c 0,-18.588 -11.877,-31.373 -30.284,-31.373 h -20.491 z" /></g><g
           transform="translate(383.8241,403.252)"
           id="g24"><path
             id="path26"
             style="fill:#00adee;fill-opacity:1;fill-rule:nonzero;stroke:none"
             d="M 0,0 H 40.892 V -11.877 H 13.056 V -25.57 H 37.539 V -37.447 H 13.056 v -14.146 h 28.2 V -63.47 L 0,-63.47 Z" /></g><g
           transform="translate(427.2527,403.252)"
           id="g28"><path
             id="path30"
             style="fill:#00adee;fill-opacity:1;fill-rule:nonzero;stroke:none"
             d="M 0,0 H 14.235 L 27.654,-43.704 41.073,0 H 54.946 L 33.547,-63.833 H 21.399 Z" /></g><g
           transform="translate(486.7273,403.252)"
           id="g32"><path
             id="path34"
             style="fill:#00adee;fill-opacity:1;fill-rule:nonzero;stroke:none"
             d="M 0,0 H 40.893 V -11.877 H 13.056 V -25.57 H 37.539 V -37.447 H 13.056 v -14.146 h 28.2 V -63.47 L 0,-63.47 Z" /></g><g
           transform="translate(534.9591,403.252)"
           id="g36"><path
             id="path38"
             style="fill:#00adee;fill-opacity:1;fill-rule:nonzero;stroke:none"
             d="m 0,0 h 13.148 v -51.41 h 25.66 V -63.47 H 0 Z" /></g><g
           transform="translate(617.4687,371.1545)"
           id="g40"><path
             id="path42"
             style="fill:#00adee;fill-opacity:1;fill-rule:nonzero;stroke:none"
             d="m 0,0 v 0.635 c 0,12.513 -6.345,20.401 -15.142,20.401 -8.885,0 -15.142,-7.797 -15.142,-20.311 V 0.09 c 0,-12.511 6.438,-20.401 15.234,-20.401 C -6.255,-20.311 0,-12.513 0,0 m -43.794,-0.271 v 1.087 c 0,19.041 11.97,32.37 28.744,32.37 16.865,0 28.652,-13.239 28.652,-32.188 V -0.09 c 0,-18.951 -11.969,-32.371 -28.744,-32.371 -16.865,0 -28.652,13.239 -28.652,32.19" /></g><g
           transform="translate(658.6267,370.8832)"
           id="g44"><path
             id="path46"
             style="fill:#00adee;fill-opacity:1;fill-rule:nonzero;stroke:none"
             d="m 0,0 c 6.801,0 10.61,4.261 10.61,10.154 v 0.091 c 0,6.62 -3.809,10.247 -10.791,10.247 H -7.343 L -7.343,0 Z M -20.491,32.369 H 0.635 c 14.236,0 23.212,-8.251 23.212,-21.761 v -0.18 c 0,-14.6 -10.428,-21.943 -23.757,-22.216 h -7.433 v -19.313 h -13.148 z" /></g><g
           transform="translate(687.7306,403.252)"
           id="g48"><path
             id="path50"
             style="fill:#00adee;fill-opacity:1;fill-rule:nonzero;stroke:none"
             d="M 0,0 H 13.782 L 27.927,-25.75 41.89,0 H 55.763 V -63.47 H 42.888 v 40.531 L 27.927,-49.143 H 27.656 L 12.784,-23.12 V -63.47 H 0 Z" /></g><g
           transform="translate(752.8253,403.252)"
           id="g52"><path
             id="path54"
             style="fill:#00adee;fill-opacity:1;fill-rule:nonzero;stroke:none"
             d="M 0,0 H 40.892 V -11.877 H 13.056 V -25.57 H 37.539 V -37.447 H 13.056 v -14.146 h 28.2 V -63.47 L 0,-63.47 Z" /></g><g
           transform="translate(801.0572,403.252)"
           id="g56"><path
             id="path58"
             style="fill:#00adee;fill-opacity:1;fill-rule:nonzero;stroke:none"
             d="m 0,0 h 12.06 l 24.3,-36.993 V 0 H 49.235 V -63.47 H 37.991 L 12.875,-25.116 V -63.47 H 0 Z" /></g><g
           transform="translate(871.7781,391.1017)"
           id="g60"><path
             id="path62"
             style="fill:#00adee;fill-opacity:1;fill-rule:nonzero;stroke:none"
             d="M 0,0 H -15.959 V 12.15 H 29.015 V 0 H 13.056 V -51.32 H 0 Z" /></g><g
           transform="translate(321.4482,433.1847)"
           id="g64"><path
             id="path66"
             style="fill:#00adee;fill-opacity:1;fill-rule:nonzero;stroke:none"
             d="m 0,0 8.551,10.641 c 4.675,-4.078 10.343,-7.856 17.304,-7.856 5.567,0 8.949,2.784 8.949,6.861 v 0.1 c 0,3.48 -1.988,5.668 -11.933,9.447 C 10.542,23.966 2.885,28.639 2.885,40.572 v 0.199 c 0,12.132 9.346,20.385 22.77,20.385 8.154,0 16.111,-2.784 22.475,-8.551 L 40.074,41.666 c -4.375,3.58 -9.447,6.464 -14.816,6.464 -4.972,0 -8.055,-2.487 -8.055,-6.066 v -0.1 c 0,-3.977 2.387,-5.867 13.226,-10.341 12.132,-4.774 18.694,-9.944 18.694,-20.784 v -0.198 c 0,-12.928 -9.844,-20.882 -23.369,-20.882 C 16.906,-10.241 7.657,-7.16 0,0" /></g><g
           transform="translate(376.6319,450.8855)"
           id="g68"><path
             id="path70"
             style="fill:#00adee;fill-opacity:1;fill-rule:nonzero;stroke:none"
             d="M 0,0 V 42.56 H 14.418 V -0.099 c 0,-9.845 4.674,-14.718 12.131,-14.718 7.459,0 12.132,4.773 12.132,14.419 V 42.56 h 14.32 V 0.298 c 0,-19.191 -10.542,-28.44 -26.65,-28.44 C 10.341,-28.142 0,-18.794 0,0" /></g><g
           transform="translate(433.9052,433.1847)"
           id="g72"><path
             id="path74"
             style="fill:#00adee;fill-opacity:1;fill-rule:nonzero;stroke:none"
             d="m 0,0 8.551,10.641 c 4.675,-4.078 10.343,-7.856 17.304,-7.856 5.567,0 8.95,2.784 8.95,6.861 v 0.1 c 0,3.48 -1.989,5.668 -11.934,9.447 C 10.542,23.966 2.883,28.639 2.883,40.572 v 0.199 c 0,12.132 9.348,20.385 22.772,20.385 8.154,0 16.111,-2.784 22.475,-8.551 L 40.074,41.666 c -4.375,3.58 -9.447,6.464 -14.816,6.464 -4.972,0 -8.055,-2.487 -8.055,-6.066 v -0.1 c 0,-3.977 2.387,-5.867 13.226,-10.341 12.131,-4.774 18.694,-9.944 18.694,-20.784 v -0.198 c 0,-12.928 -9.844,-20.882 -23.369,-20.882 C 16.906,-10.241 7.657,-7.16 0,0" /></g><g
           transform="translate(501.8173,480.1211)"
           id="g76"><path
             id="path78"
             style="fill:#00adee;fill-opacity:1;fill-rule:nonzero;stroke:none"
             d="M 0,0 H -17.502 V 13.325 H 31.821 V 0 H 14.319 V -56.284 H 0 Z" /></g><g
           transform="translate(566.4483,451.6816)"
           id="g80"><path
             id="path82"
             style="fill:#00adee;fill-opacity:1;fill-rule:nonzero;stroke:none"
             d="M 0,0 -7.558,22.672 -15.215,0 Z M -14.219,42.162 H -0.498 L 24.463,-27.844 H 9.546 l -5.17,15.116 H -19.59 l -5.072,-15.116 h -14.516 z" /></g><path
           id="path84"
           style="fill:#00adee;fill-opacity:1;fill-rule:nonzero;stroke:none"
           d="m 596.373,493.446 h 14.418 v -69.608 h -14.418 z" /><g
           transform="translate(621.5288,493.446)"
           id="g86"><path
             id="path88"
             style="fill:#00adee;fill-opacity:1;fill-rule:nonzero;stroke:none"
             d="m 0,0 h 13.226 l 26.65,-40.572 V 0 h 14.12 V -69.608 H 41.664 L 14.12,-27.545 V -69.608 H 0 Z" /></g><g
           transform="translate(719.6717,451.6816)"
           id="g90"><path
             id="path92"
             style="fill:#00adee;fill-opacity:1;fill-rule:nonzero;stroke:none"
             d="M 0,0 -7.558,22.672 -15.215,0 Z M -14.219,42.162 H -0.498 L 24.463,-27.844 H 9.546 l -5.17,15.116 H -19.59 l -5.072,-15.116 h -14.516 z" /></g><g
           transform="translate(775.7492,452.8739)"
           id="g94"><path
             id="path96"
             style="fill:#00adee;fill-opacity:1;fill-rule:nonzero;stroke:none"
             d="M 0,0 H -12.629 V -16.308 H 0.297 c 6.464,0 10.542,2.785 10.542,8.155 v 0.099 C 10.839,-3.082 7.159,0 0,0 m 7.855,20.087 c 0,5.071 -3.578,7.757 -9.744,7.757 h -10.74 V 12.132 h 10.044 c 6.364,0 10.44,2.586 10.44,7.856 z M -26.65,40.572 h 25.855 c 7.756,0 14.219,-2.089 18.196,-6.066 3.083,-3.182 4.675,-6.961 4.675,-11.834 V 22.375 C 22.076,14.22 17.6,9.845 12.629,7.16 20.086,4.277 25.058,-0.298 25.058,-9.446 v -0.498 c 0,-12.53 -10.044,-19.092 -25.157,-19.092 H -26.65 Z" /></g><g
           transform="translate(807.5642,493.446)"
           id="g98"><path
             id="path100"
             style="fill:#00adee;fill-opacity:1;fill-rule:nonzero;stroke:none"
             d="M 0,0 H 14.419 V -56.382 H 42.56 V -69.608 H 0 Z" /></g><g
           transform="translate(856.0882,493.446)"
           id="g102"><path
             id="path104"
             style="fill:#00adee;fill-opacity:1;fill-rule:nonzero;stroke:none"
             d="M 0,0 H 44.847 V -13.027 H 14.318 V -28.042 H 41.169 V -41.069 H 14.318 V -56.581 H 45.245 V -69.608 H 0 Z" /></g><g
           transform="translate(610.7574,558.1162)"
           id="g106"><path
             id="path108"
             style="fill:#00caff;fill-opacity:1;fill-rule:nonzero;stroke:none"
             d="m 0,0 0.406,-0.594 c 0,-2.218 0.27,-4.489 0,-6.681 2.001,0.677 4.327,0.568 6.49,0.92 -0.432,0.163 -0.865,0.271 -1.189,0.704 -1.27,0.08 -1.866,1.406 -2.271,2.406 -0.191,0.731 0.296,1.326 0.595,1.948 C 3.489,-0.188 1.812,-1 0.839,-0.594 0.568,-0.378 0.378,-0.053 0,0 M -30.889,1.895 -30.97,1.57 -36.542,-4.029 c 8.44,-7.302 17.96,-12.009 28.833,-13.496 1.732,-0.298 3.706,-0.136 5.382,-0.649 l -0.405,0.649 v 7.329 l 0.271,0.406 -0.839,-0.217 c -10.549,0.732 -19.88,4.464 -27.589,11.902 M 29.157,1.813 29.022,2.462 C 28.265,0.975 26.588,0.028 25.317,-1.108 23.558,-2.865 20.692,-3.245 19.798,-5.787 18.852,-6.651 18.527,-8.005 17.202,-8.491 16.716,-9.79 15.337,-9.709 14.551,-10.656 12.28,-12.685 10.819,-9.357 8.763,-8.951 L 4.625,-9.682 c -1.434,0 -2.868,-0.514 -4.219,-0.055 0.189,-2.758 0.189,-5.733 0,-8.491 l 0.513,0.323 c 13.037,0.568 24.29,5.518 33.946,14.283 z m -49.984,5.059 c 0.163,-0.649 1.028,-1.055 0.784,-1.867 -0.459,-0.731 -1.406,-0.758 -2.163,-0.731 -1.542,0.244 -2.678,-0.918 -4.139,-1.081 -1.325,-0.406 -1.785,1.217 -3.002,1.081 7.519,-6.572 16.12,-10.683 26.182,-11.223 l 0.758,-0.515 -0.325,0.92 V 0.597 L -3.38,0.326 C -9.954,0.65 -15.715,3.058 -20.827,6.872 m -0.189,0.216 c -0.352,0.216 -0.568,0.432 -0.65,0.838 z m -0.865,1.163 -0.109,0.19 0.109,-0.326 z M 21.61,9.279 21.422,9.792 C 21.179,9.143 20.692,8.739 20.204,8.251 20.231,7.819 20.069,7.169 20.584,6.872 21.665,6.519 23.071,5.817 23.315,4.546 22.882,3.356 20.611,2.273 22.016,0.975 22.476,0.326 21.368,0.083 21.557,-0.458 l 0.378,0.513 c 1.623,1.271 3.382,2.461 4.815,4.031 h 0.189 C 26.616,4.194 26.209,3.87 25.83,4.032 25.073,4.383 24.938,5.059 24.938,5.844 Z m -37.568,7.547 c -1.596,-1.948 -3.489,-3.977 -5.382,-5.519 0.838,-0.053 1.297,-0.974 2.001,-1.379 4.057,-3.381 9.115,-5.004 13.821,-6.167 l -1.298,0.596 c -0.974,1.108 -2.353,2.407 -2.407,3.949 0.974,0.324 0.865,1.405 1.19,2.135 0.811,0.866 1.785,1.326 2.84,1.57 -2.732,-1.136 -5.112,0.892 -7.384,1.947 -1.163,0.865 -2.678,1.568 -3.381,2.868 m 26.101,0.757 c -0.84,0 -1.272,-0.65 -1.894,-1.164 -0.757,-0.432 -1.135,0.812 -1.758,0.514 0.027,-0.136 0.163,-0.189 0.271,-0.243 0.162,-0.189 0.216,-0.595 0,-0.784 -0.919,-0.839 -1.353,0.405 -2.218,0.325 V 15.906 C 4.571,15.716 4.49,15.419 4.22,15.526 3.678,16.419 2.57,16.095 2.028,16.88 1.676,17.068 1.352,16.826 1.109,16.609 0.919,16.203 0.054,16.662 0.27,15.96 c -0.676,-0.244 -0.757,-0.975 -1.244,-1.406 -0.838,0.135 -1.217,-0.812 -2.001,-0.786 0.082,-0.162 0,-0.432 0.243,-0.459 0.487,-0.216 0.974,-0.271 1.569,-0.189 0.811,1.299 2.164,0.216 3.299,0.703 0.704,-0.135 0.217,-0.893 0.731,-1.163 1.109,0.351 1.948,-0.947 2.84,-0.136 -0.054,1.272 1.379,1.164 2.164,1.488 1.218,0.73 2.596,1.704 2.461,3.327 z m -3.057,2.028 c -0.08,-0.216 -0.378,-0.596 0,-0.731 0.65,0.677 2.029,0.65 2.083,1.623 -0.948,0.136 -1.433,-0.378 -2.083,-0.892 m -15.714,4.733 c -1.164,-1.893 -3.381,-3.624 -5.004,-5.382 2.894,-2.38 6.14,-3.868 9.737,-4.491 0.189,0.732 -0.108,1.651 0.271,2.273 0.27,0.595 1,0.568 1.542,0.46 0.324,0.027 0.513,0.433 0.324,0.704 -0.784,0.161 -0.433,1.027 -0.703,1.514 0.027,0.27 0.486,0.217 0.379,0.568 -0.542,0.432 0.27,0.92 -0.19,1.379 0.19,0.135 0.324,0.433 0.596,0.433 -1.704,-0.892 -3.544,0.19 -5.059,0.866 -0.703,0.405 -1.731,0.811 -1.893,1.676 m 34.08,0 c -0.784,0.054 -1.731,-0.406 -2.408,0.136 -0.244,0.216 -0.404,-0.109 -0.379,-0.324 -0.269,-0.407 -0.54,-0.921 -1.162,-0.731 -0.486,0.216 -0.486,0.731 -0.649,1.109 0.027,-0.298 -0.081,-0.568 -0.135,-0.839 -0.57,-0.595 -0.757,-1.162 -1.163,-1.812 -0.569,-0.622 -1.488,-0.406 -2.083,-0.919 -0.109,-1.299 -1.541,-1.028 -2.353,-1.434 -0.054,-0.163 0.135,-0.189 0.217,-0.325 0.378,-0.108 0.892,-0.108 1.162,0.271 1.136,-0.298 0.893,1.136 1.542,1.622 0.569,0.082 1.109,0.569 1.704,0.19 0.595,-0.73 0.73,-1.785 0.648,-2.732 -0.648,-0.648 -0.324,-1.704 -0.784,-2.461 0.108,-0.892 -0.972,-1.298 -0.837,-2.191 -0.353,-0.406 -0.948,-0.46 -1.488,-0.46 -2.138,0.812 -4.382,1.325 -6.763,1.541 -0.216,-0.08 -0.351,-0.271 -0.324,-0.514 0.973,-0.513 2.165,-0.541 3.191,-0.973 0.921,-0.243 1.543,-1.379 2.705,-1.028 0.974,0.541 2.597,-0.324 3.246,0.703 -0.108,1.002 0.758,1.732 1.19,2.597 l 0.325,0.081 c 0.541,-0.567 0.514,-1.406 0.756,-2.028 0.759,0.811 1.354,1.703 2.029,2.542 1.785,2.597 3.3,5.382 3.949,8.358 -0.73,-0.027 -1.46,-0.162 -2.136,-0.379 m -15.309,0.054 c 0.027,-0.406 0.081,-0.946 0.433,-1.298 1.055,0.163 0.594,-1.298 1.568,-1.163 0.541,0.162 0.028,0.622 0.19,0.974 -0.162,0.811 -0.947,0.892 -1.488,1.38 -0.054,0.161 0.055,0.297 0.135,0.432 -0.405,0.216 -0.595,-0.027 -0.838,-0.325 m -21.368,2.218 c -0.162,-0.675 -0.622,-1.271 -1.109,-1.758 l 0.081,-0.054 c 0.649,0.46 1.109,1.299 1.948,1.352 z m -8.493,2.137 c 0.758,-1.407 1.163,-3.002 1.947,-4.409 0.487,-1.244 1.569,-2.217 2.056,-3.434 0.514,0.973 1.542,1.758 2.272,2.65 0.055,0.406 -0.027,0.758 -0.243,1.055 -0.244,0.567 -0.028,1.379 -0.46,1.866 -0.704,-0.243 0.243,-0.947 -0.054,-1.352 -0.298,-0.19 -0.622,0.053 -0.65,0.324 -0.622,0.109 -1.108,0.65 -1.297,1.217 0.514,0.325 -0.136,0.46 -0.271,0.731 -0.27,0.135 -0.298,0.108 -0.514,-0.136 -0.135,0 -0.297,-0.027 -0.405,0.054 0,1.543 -1.731,0.622 -2.381,1.434 m -13.902,3.327 -0.596,-0.27 c -2.515,0.054 -5.139,-0.163 -7.519,0.188 l 0.324,-0.46 0.596,-4.976 c 0.243,-1.921 1.082,-3.759 1.027,-5.652 0.298,0.405 0.108,1.217 0.839,1.298 -0.297,0.595 0.568,1.108 0.081,1.623 0.244,1.298 0.406,2.623 1.542,3.57 1.38,0.054 1.488,1.866 2.867,1.947 0.703,0.027 1.136,-0.919 1.434,-1.244 -0.866,1.055 -0.812,2.786 -0.595,3.976 m -10.576,0 -0.731,-0.27 -7.518,0.054 c 0.432,-8.655 2.731,-16.526 6.626,-23.749 1.921,-3.569 4.734,-6.789 7.195,-10.115 l 5.382,5.572 0.648,0.27 c -0.918,0.65 -1.73,1.704 -2.514,2.598 -0.893,0.243 -1.813,0.864 -2.272,1.73 -0.27,0.298 -0.027,0.838 -0.325,1.054 L -38.03,8.819 c -0.947,-0.46 -1.297,0.515 -1.947,0.919 -0.838,0.46 -0.432,2.057 -1.568,1.759 -0.433,0.027 -0.568,0.514 -0.839,0.784 -1.055,-0.109 -1.325,1.055 -1.894,1.623 -0.107,-0.243 0,-0.568 -0.324,-0.731 -1.082,-0.243 -1.461,1.083 -2.191,1.624 -0.189,-0.083 -0.324,-0.298 -0.595,-0.243 -0.649,0.567 -1.081,1.378 -1.109,2.272 -0.892,1 -0.487,2.596 -0.324,3.813 0.162,0.325 0.622,0.514 0.541,0.919 0.243,0.569 0.838,0.622 1.406,0.65 0.217,-0.109 0.433,-0.325 0.541,-0.514 0.352,0.216 1.136,-0.027 0.838,0.757 0.46,0.406 1.137,0.541 1.759,0.649 0.433,-0.541 0.649,-1.163 1.217,-1.677 l -0.379,0.595 c -0.649,2.651 -1.163,5.356 -1.298,8.223 0.027,0.162 -0.352,0.243 -0.136,0.406 l 0.054,-0.082 c 0.028,0.595 -0.026,1.11 0.082,1.515 m 13.037,0.108 0.406,-0.65 c 0.053,-1.784 0.757,-3.488 0.378,-5.3 0.298,0.514 0.379,1.217 1.028,1.541 0.081,0.488 -0.649,0.622 -0.568,1.109 0.514,1.001 0.027,2.624 1.353,3.056 -0.947,-0.162 -1.786,-0.351 -2.597,0.244 m 63.102,0.081 c 0.163,-1.649 -0.27,-3.246 -0.378,-4.868 l 0.893,-0.974 c 0.243,-0.379 0.162,-0.946 -0.19,-1.245 -0.38,-0.243 -0.864,-0.215 -1.244,0.082 -1.136,-3.624 -2.462,-7.168 -4.734,-10.332 -0.892,-1.136 -1.757,-2.705 -2.921,-3.3 L 25.83,9.468 c 0.136,0.135 0.056,0.352 0.081,0.541 0,0.324 0.163,0.703 0.569,0.649 1.19,0.028 1.218,-1.244 1.893,-1.893 -0.135,-1.028 0.757,-1.84 0.46,-2.786 6.816,7.194 10.225,16.013 10.845,25.776 l 0.379,0.433 C 37.623,31.944 35.054,32.107 32.539,32.08 Z M 42.79,32.08 42.33,32.405 42.6,31.675 C 42.168,22.668 39.165,14.714 34.026,7.656 c -1,-1.19 -1.948,-2.651 -3.192,-3.489 2.057,-1.623 4.327,-4.058 6.032,-5.924 l 0.217,0.406 c 8.276,9.439 12.982,20.366 13.496,33.026 l 0.325,0.648 -0.406,-0.189 z m -18.501,0.378 0.838,-0.838 c 0.839,-0.568 0.271,-1.785 1.163,-2.272 1.055,-0.541 1.435,-1.758 1.894,-2.678 0.163,0.244 0.163,0.541 0.244,0.785 0.377,1.488 0.324,3.165 0.783,4.625 -1.623,-0.082 -3.488,-0.244 -4.922,0.378 m 1.677,2.651 c -0.217,-0.108 -0.514,-0.026 -0.784,-0.054 0.242,0.109 0.541,0.054 0.784,0.054 m -50.634,0.92 c -2.19,-0.703 0.352,-2.353 -0.189,-3.706 -0.297,-0.785 -1.109,-0.054 -1.677,-0.379 l -0.216,-1.433 c -0.326,-0.838 -1.38,-0.216 -1.867,-0.784 -0.352,-0.541 0.027,-1.109 0.325,-1.542 -0.757,-1.731 1.704,-2.272 1.677,-3.841 0.757,-0.973 -0.108,-2.38 0.974,-3.246 0.243,-1.757 -0.244,-4.137 1.298,-5.516 l 0.27,-1.678 c 0.325,-1.164 -1.38,-0.866 -1.163,-1.893 0.325,0.161 0.406,-0.271 0.433,-0.379 v 0.054 c 2.083,2.407 4.491,4.95 6.951,7.086 l -1.027,1.029 c -1.921,2.867 -3.436,5.923 -4.165,9.277 l -0.786,0.405 c -0.027,-0.865 -0.433,-1.542 -0.378,-2.407 l -0.271,-0.324 c -0.567,0.027 -0.919,0.486 -1.406,0.784 -0.108,0.298 -0.406,0.784 0.055,1.028 0.27,0.027 0.459,-0.054 0.649,-0.189 0.243,0.297 0.135,0.73 0.27,1.108 0.081,0.65 -0.487,1.245 -0.081,1.812 0.513,0.055 0.892,-0.567 1.109,-0.919 0.514,-0.162 0.919,0.271 1.353,0.46 0,0.459 0.649,1.082 -0.054,1.352 0.378,1.055 0.107,2.164 -0.055,3.192 -0.298,0.893 -1.298,0.73 -2.029,0.649 m 23.505,6.681 c -0.433,0.487 -1.379,0.189 -1.947,0 0.539,-0.541 0.324,-1.514 0.649,-2.191 -0.811,-1.352 -2.164,-1.65 -3.435,-2.029 -0.352,-0.432 -0.271,-1.379 -1.11,-1.298 -0.27,-0.595 -1.189,-0.946 -0.838,-1.812 -0.432,-0.92 -0.216,-2.109 -0.46,-3.111 -1.596,-1 -1.136,1.325 -1.947,1.813 l -0.27,-0.46 c -0.325,-0.081 -0.542,0.108 -0.758,0.324 -0.244,0.082 -0.649,0.163 -0.865,-0.053 -0.352,-0.596 -0.893,-1.083 -0.758,-1.895 -0.162,-0.486 -0.974,-0.323 -0.865,-0.838 0.892,0.027 1.866,0.19 2.731,0.378 0.622,-0.161 1.136,0.298 1.759,0.326 0.216,-0.109 0.459,-0.326 0.378,-0.65 h 0.217 c 0.433,0.324 0.622,0.812 0.433,1.299 0.054,0.568 0.676,0.568 1.055,0.73 0.351,-0.162 0.134,-0.514 0.188,-0.785 1.217,-0.46 -0.296,-1.352 -0.459,-2.001 -0.325,-0.513 0,-1.677 -1.028,-1.514 -0.189,0.054 -0.325,0.243 -0.27,0.46 h -0.136 c -0.027,-0.433 0.298,-1.028 0.731,-1.218 0.757,0.622 0.784,1.677 1.866,1.813 0.567,0.595 -0.244,1.514 0.595,2 1.406,0.028 2.921,0.623 4.031,-0.513 -0.082,-0.487 -0.272,-0.703 0.134,-1.109 -0.27,-0.622 -0.46,-1.298 -0.974,-1.812 0.135,-0.352 0.027,-0.785 -0.27,-1.028 -0.379,-1.65 -2.272,-0.866 -3.381,-1.433 1.705,-1.299 3.76,-1.785 5.978,-1.623 1.163,0.054 0.649,1.487 1.244,2.136 0.378,1.894 2.11,0.595 3.165,1.11 0.405,0.811 0.812,1.595 0.919,2.515 -0.677,0.432 -0.946,1.244 -0.73,2.028 -0.46,0.623 -0.407,1.759 -1.407,1.866 -0.162,0.217 -0.026,0.488 0.109,0.65 -0.028,0.595 0.567,0.785 0.73,1.244 -0.622,0.406 -0.461,1.299 -0.405,1.812 -1.056,-0.297 -1.165,1.083 -1.948,1.38 -0.19,0.622 -0.866,0.73 -1.407,0.838 -1.298,-0.622 -1.515,0.975 -2.488,1.352 -0.109,0.298 -0.325,0.731 0,0.974 0.487,0.406 1.136,0.054 1.703,0.081 z m -13.118,4.49 h 0.595 c 0.649,-0.65 1.704,-0.514 2.191,-1.38 0.243,-0.487 -0.461,-0.433 -0.433,-0.838 0.135,-0.108 0.324,-0.136 0.433,-0.325 0.513,-0.189 0.405,0.297 0.595,0.515 0.676,0.675 0.784,-0.65 1.434,-0.65 0.459,0.298 1.108,0.324 1.433,-0.189 0.432,0.379 1.353,0.027 1.487,0.73 0.839,0.892 0.379,2.272 1.624,2.84 0.432,-0.243 -0.028,-0.649 0.134,-1.028 0.839,-0.351 1.786,0.703 2.461,-0.135 -0.621,1.758 -0.459,3.95 -0.405,5.897 C -7.086,52.068 -11.09,50.58 -14.281,47.2 M 0.27,52.853 c 0.515,-1.542 0.054,-3.814 0.379,-5.599 l 1.947,-0.648 c 0.569,0.945 1.813,1.135 2.354,2.027 0.352,0.298 0.757,0 1.028,-0.325 0.08,-0.73 -0.109,-1.459 -0.325,-2.163 -0.73,-1.46 -2.462,-1.65 -3.435,-2.705 0.622,-0.351 0.973,0.298 1.488,0.433 0.756,-0.081 1.351,-0.731 1.812,-1.217 0.487,-0.217 0.946,0.081 1.378,0.243 0.299,2.245 3.112,1.921 3.95,4.03 L 10.332,46.74 c -0.215,0.298 -0.757,0.162 -0.73,0.65 0.46,0.432 1.054,1.108 1.623,1.298 C 8.79,50.203 6.275,51.5 3.516,52.204 2.435,52.448 1.298,52.475 0.27,52.853 m -23.369,0.893 c -3.733,-4.464 -6.275,-9.386 -7.276,-14.985 -0.297,-1.299 -0.135,-2.813 -0.649,-4.031 0.947,0.434 2.326,0.271 3.381,0.137 -0.622,0.323 -0.108,1.108 -0.459,1.54 -0.082,0.677 -0.19,1.515 0.459,1.948 -0.081,1.109 1.109,1.677 1.218,2.679 0.297,1.135 1.595,0.377 2.217,0.973 0.406,0.216 0.054,0.595 0.054,0.892 0.542,0.73 1.38,0.704 2.028,1.109 0.46,0.704 1.056,1.461 1.814,1.894 1.622,-0.055 1.649,2.217 3.191,2.272 -2.11,1.595 -4.112,3.732 -5.978,5.572 m 44.007,0.27 -0.135,-0.325 c -2.489,-2.596 -5.221,-5.274 -7.601,-7.925 0.163,-0.324 0.433,-0.622 0.731,-0.784 0.107,0.649 0.459,1.217 0.514,1.893 0.649,0.893 1.622,0.325 2.461,0.135 1.297,0.298 2.516,-0.297 3.841,-0.27 0.973,-0.486 1.055,-1.731 1.946,-2.218 0.244,-0.352 0.055,-0.757 -0.269,-1.028 0.269,-2.028 1.243,0.541 2.272,0.054 0.432,-0.162 0.974,-0.108 1.298,-0.568 0.162,-0.838 1.19,-0.676 1.244,-1.487 -0.081,-0.406 -0.513,-0.514 -0.784,-0.731 0.244,-0.811 -0.838,-1.325 -0.46,-2.191 1.568,-0.297 1.622,1.515 2.353,2.326 -0.406,1.407 -0.703,2.841 -1.514,4.085 -0.894,0.19 -1.434,1.244 -2.326,1.434 -1.732,0.676 0.269,1.758 0.054,2.785 -0.92,1.731 -2.381,3.274 -3.625,4.815 m -51.743,7.52 -0.054,-0.515 -2.921,-3.706 c -4.787,-6.571 -7.06,-14.173 -7.735,-22.448 l 7.41,0.134 0.704,-0.271 c -0.298,0.19 -0.216,0.515 -0.325,0.785 0.596,7.709 3.3,14.579 8.628,20.313 -2.055,1.785 -3.975,3.678 -5.707,5.708 m 31.024,2.028 0.271,-0.595 -0.054,-7.33 0.703,0.135 c 4.489,-0.622 8.601,-2.055 12.144,-4.95 l 0.19,-0.568 c 1.217,1.704 3.056,3.165 4.49,4.788 l 1.352,0.784 -0.648,0.271 c -2.977,2.488 -6.222,4.381 -9.739,5.625 -2.732,0.974 -5.733,1.38 -8.709,1.84 m -2.84,0.054 -0.459,-0.271 c -6.871,-0.487 -12.821,-3.354 -18.042,-7.654 2.056,-1.434 3.895,-3.733 5.761,-5.383 0.136,0.189 0.272,0.38 0.407,0.596 2.569,1.839 5.22,3.515 8.249,4.273 1.352,0.135 2.677,0.784 4.084,0.46 -0.297,2.542 -0.297,5.355 0,7.979 m -35.568,5.653 c -7.708,-8.575 -12.469,-18.365 -13.848,-29.537 -0.297,-1.623 -0.109,-3.299 -0.433,-4.949 2.705,0.216 5.653,0.216 8.358,0 l -0.19,1.055 c 0.514,8.628 3.273,16.31 8.115,23.179 1.217,1.38 2.11,3.111 3.623,4.139 -1.757,1.65 -3.596,3.571 -5.436,5.383 z m 74.382,0.189 c -1.487,-2.001 -3.516,-3.868 -5.382,-5.787 l -0.92,-0.19 c 0.568,-0.136 0.73,-0.812 1.11,-1.218 1.972,-1.054 2.487,-3.165 4.219,-4.355 0.973,-2.028 3.219,-3.597 3.299,-5.923 2.354,-5.193 3.949,-10.684 4.111,-16.797 l -0.216,-0.323 c 0.243,0 0.46,0.107 0.649,0.242 l 7.789,0.136 c -0.513,0.758 -0.296,1.866 -0.431,2.786 -1.029,12.036 -6.168,22.341 -14.228,31.429 m -60.1,-2.461 c -1.678,-1.163 -3.22,-2.678 -4.949,-3.706 2,-1.271 3.65,-3.381 5.463,-5.058 l 0.189,-0.513 c 4.598,4.408 10.197,6.978 16.228,8.223 1.434,0.134 2.868,0.621 4.274,0.323 -0.108,2.571 -0.324,5.248 -0.054,7.791 -7.844,-0.461 -14.876,-2.84 -21.151,-7.06 m 48.551,7.276 c -0.568,-0.541 -1.056,0.486 -1.57,-0.135 -0.026,-0.298 0.027,-0.569 0.19,-0.785 1.136,-0.405 1.271,-2.056 2.732,-1.677 0.433,0.487 -0.271,1.001 -0.136,1.623 -0.188,0.568 -0.676,0.812 -1.216,0.974 M 0.135,74.329 0.406,73.815 C 0.352,71.299 0.514,68.622 0.27,66.268 c 1.028,0.353 2.083,-0.08 3.11,-0.108 5.302,-0.865 10.306,-2.569 14.553,-5.842 -0.514,0.541 -1.135,1.163 -1.245,1.947 0.082,0.108 0.19,0.136 0.325,0.108 0.054,0.84 -0.839,1.272 -0.974,2.029 0.135,0.163 0.325,0.324 0.595,0.243 0.92,-0.865 1.705,-1.812 2.38,-2.786 0.595,0.244 1.083,-0.135 1.515,-0.459 0.785,-0.46 0.298,-1.46 0.893,-2.002 0.108,-1.595 2.055,-2.488 1.947,-4.084 0.028,-0.378 0.487,-0.081 0.649,-0.27 l 1.624,-2.002 c -0.298,-0.378 -0.054,-0.838 0.269,-1.109 0.731,-0.324 1.136,0.595 1.866,0.46 1.056,-0.595 -0.161,-1.298 -0.052,-1.948 0.404,-0.027 0.919,0.324 1.243,-0.08 0.136,-0.596 -0.486,-0.974 -0.73,-1.353 0,-0.595 0.486,-0.46 0.919,-0.595 0.488,0.027 0.786,-0.568 0.65,-0.973 1.353,-1.407 -0.407,-2.922 0.243,-4.409 0.433,-0.975 -0.107,-1.921 -0.702,-2.652 0.026,-1.189 -1.057,-1.919 -1.488,-2.921 l -1.38,-0.27 c -0.731,-0.73 0.621,-1.622 -0.108,-2.083 L 29.4,35.055 29.076,35.38 c -0.432,1.19 -0.324,2.786 0.405,3.841 0.462,0.974 0.569,2.136 1.434,2.975 0.19,0.053 0.542,0.406 0.704,0 0.054,-0.92 -0.026,-1.975 -0.459,-2.786 0.864,-1.244 0.757,-2.867 0.837,-4.409 2.679,0.163 5.302,0.216 7.925,0.189 l -0.244,0.514 c -0.405,5.004 -1.433,9.738 -3.515,14.011 -0.568,-0.027 -0.973,-0.486 -1.623,-0.324 -0.216,0.081 -0.352,0.297 -0.325,0.541 -1.081,1.027 -1.757,2.38 -2.975,3.3 -1.379,-0.136 -2,1.46 -3.246,1.622 -1.108,0.46 -0.352,2.245 -1.948,1.759 -0.783,0.324 -1.541,0.919 -1.703,1.811 0,1.407 -0.271,2.922 -1.543,3.841 -0.972,0.352 -1.378,-0.946 -2.352,-0.729 -0.541,0.269 -0.299,0.973 -0.46,1.433 -0.19,0.405 -0.649,0.704 -0.568,1.244 1.272,1.677 -1.542,1.65 -0.919,3.3 -0.162,1.19 -1.38,1.65 -2.002,2.596 -4.193,1.894 -8.385,3.192 -13.119,3.76 -1.162,0.162 -2.244,-0.081 -3.245,0.46 m 6.303,6.68 -3.896,-1.677 c -0.324,0.136 -0.946,0.299 -1.162,-0.134 -0.163,-0.136 0,-0.325 0.053,-0.461 1.434,-1.839 3.922,-0.81 5.708,-0.459 1.298,-0.541 2.542,0.108 3.515,0.92 v 0.189 c -0.919,1.298 -2.649,1.488 -4.218,1.622 m -9.278,4.085 c -10.874,-0.432 -20.529,-4.139 -29.103,-10.306 -1.651,-1.135 -3.112,-2.867 -4.788,-3.84 h 0.242 c 2.138,-1.569 4.167,-3.814 5.979,-5.761 l 0.135,0.378 c 7.898,7.195 17.094,11.144 27.643,11.631 l -0.243,0.649 -0.081,6.492 z m 3.029,0.271 c 0.325,-2.138 0.244,-5.059 0.081,-7.466 0,0.244 0.108,0.46 0.244,0.65 0.379,0.216 0.703,-0.109 0.866,-0.379 0.026,-0.379 0.189,-1.028 -0.135,-1.245 0.324,-0.053 0.486,0.19 0.783,0.19 6.193,-0.46 11.928,-2.272 17.068,-5.194 v 0.136 c 1.053,0.514 2.407,1.19 3.489,0.27 1.298,0.487 1.542,-1.108 2.597,-1.298 1.271,-0.757 2.704,-2.164 2.867,-3.651 0.242,-0.488 1.001,-0.839 1.108,-1.352 0.866,1.838 2.597,3.137 4.085,4.732 l 0.918,0.379 C 25.993,78.927 16.283,83.227 5.463,84.715 3.732,85.013 1.839,84.85 0.189,85.365 M 47.848,57.126 C 53.473,46.28 55.069,31.35 51.419,19.097 47.711,4.627 35.54,-10.007 21.368,-15.956 c -15.959,-7.818 -38.625,-5.871 -52.851,4.327 -19.772,13.551 -27.86,36.893 -21.883,59.937 3.625,13.687 14.525,27.509 27.859,33.865 7.493,3.705 15.688,5.679 24.614,5.842 20.394,-0.027 39.869,-12.009 48.741,-30.889" /></g><g
           transform="translate(660.498,635.8802)"
           id="g110"><path
             id="path112"
             style="fill:#00caff;fill-opacity:1;fill-rule:nonzero;stroke:none"
             d="m 0,0 c 3.976,-3.543 5.762,-8.142 6.924,-12.902 l 0.65,-1.515 c -5.762,4.139 -10.981,9.71 -14.66,15.58 l -4.49,4.544 C -7.627,4.03 -3.38,3.029 0,0" /></g><g
           transform="translate(559.9345,628.8207)"
           id="g114"><path
             id="path116"
             style="fill:#00caff;fill-opacity:1;fill-rule:nonzero;stroke:none"
             d="m 0,0 c -2.651,-3.273 -6.031,-5.437 -9.034,-8.25 1.622,3.354 1.677,7.357 3.976,10.441 3.273,5.707 9.331,7.708 14.741,9.818 C 5.707,8.52 2.948,4.111 0,0" /></g><g
           transform="translate(674.5636,622.8425)"
           id="g118"><path
             id="path120"
             style="fill:#00caff;fill-opacity:1;fill-rule:nonzero;stroke:none"
             d="m 0,0 c 1.271,-5.679 -0.568,-11.224 0.595,-16.959 l -0.054,-0.053 c -3.085,6.085 -9.657,8.953 -14.174,13.821 -2.623,2.894 -3.759,6.41 -4.408,10.143 2.597,-6.248 9.574,-7.628 13.577,-12.875 1.353,-1.217 1.786,-2.894 2.652,-4.274 l 0.135,0.136 C -3.976,-5.139 -4.76,0.406 -6.357,5.654 -7.168,7.926 -8.764,10.17 -10.901,11.604 -5.653,10.522 -1.081,5.032 0,0" /></g><g
           transform="translate(555.0118,633.4725)"
           id="g122"><path
             id="path124"
             style="fill:#00caff;fill-opacity:1;fill-rule:nonzero;stroke:none"
             d="m 0,0 c -5.355,-3.678 -5.004,-10.278 -6.708,-15.769 -0.541,-2.028 -1.487,-3.895 -1.948,-5.977 l 0.136,-0.108 c 0.892,2.353 2.461,4.571 4.409,6.491 3.813,3.516 9.439,5.708 11.306,10.901 -0.081,-7.221 -6.113,-12.902 -11.875,-16.96 -2.379,-2.082 -4.679,-4.462 -5.977,-7.14 -0.135,1.812 0.271,3.651 0.135,5.599 -0.621,6.302 -1.081,13.496 3.381,18.176 C -5.22,-2.38 -2.759,-0.702 0,0" /></g><g
           transform="translate(677.9443,621.5988)"
           id="g126"><path
             id="path128"
             style="fill:#00caff;fill-opacity:1;fill-rule:nonzero;stroke:none"
             d="m 0,0 c 4.787,-6.492 5.842,-16.823 2.354,-24.262 -1.299,-3.164 -2.219,-6.518 -2.732,-10.008 -0.244,0.595 -0.298,1.407 -0.514,2.083 -1.893,7.276 -8.79,12.469 -11.631,19.34 -0.893,2.244 -1.65,4.571 -2.083,7.005 3.03,-5.599 10.495,-8.494 12.524,-14.661 0.838,-1.568 0.784,-3.515 1.297,-5.192 0.109,0 0.217,0.08 0.217,0.189 -0.892,6.356 -0.623,13.01 0.243,19.285 -0.053,3.408 -0.378,6.708 -2.272,9.332 C -1.38,2.407 -0.838,1.055 0,0" /></g><g
           transform="translate(543.5701,623.6271)"
           id="g130"><path
             id="path132"
             style="fill:#00caff;fill-opacity:1;fill-rule:nonzero;stroke:none"
             d="m 0,0 c -4.111,-6.248 -0.702,-14.118 -0.892,-21.232 l -0.541,-7.277 c 0.081,-0.053 0.081,-0.27 0.27,-0.188 0.243,0.811 0.298,1.677 0.461,2.515 0.972,5.869 6.058,10.035 10.521,14.092 0.946,1.055 1.784,2.137 2.272,3.381 -0.352,-2.922 -1.272,-5.869 -2.489,-8.574 -3.462,-6.762 -9.872,-12.307 -11.035,-20.043 -0.569,7.411 -5.626,12.957 -5.112,20.827 -0.163,6.384 2.488,11.604 6.221,16.364 C -0.216,-0.081 -0.135,0.027 0,0" /></g><g
           transform="translate(682.4343,579.4853)"
           id="g134"><path
             id="path136"
             style="fill:#00caff;fill-opacity:1;fill-rule:nonzero;stroke:none"
             d="m 0,0 c -2.84,-4.03 -6.275,-7.79 -8.899,-11.901 0.298,3.246 0.677,7.249 -0.595,10.333 -2.191,6.626 -4.112,13.361 -4.733,20.636 l 0.08,2.787 c 1.651,-7.439 8.954,-12.551 8.495,-20.881 0.162,-2.029 -0.461,-3.732 -0.84,-5.518 l 0.136,-0.135 0.324,0.378 c 1.083,4.085 1.623,8.385 3.3,12.199 2.408,5.49 5.382,11.036 4.165,17.662 C 5.084,17.744 3.976,7.303 0,0" /></g><g
           transform="translate(541.4876,582.082)"
           id="g138"><path
             id="path140"
             style="fill:#00caff;fill-opacity:1;fill-rule:nonzero;stroke:none"
             d="m 0,0 c 0.785,-2.732 0.974,-5.681 2.083,-8.25 0.108,-0.054 0.189,0.054 0.27,0.135 -2.785,7.79 1.218,15.012 5.248,21.098 0.973,1.65 1.541,3.488 2.029,5.383 C 10.063,14.849 9.17,10.792 8.656,7.14 7.681,2.488 6.221,-1.92 4.95,-6.437 4.112,-9.251 4.328,-12.442 4.76,-15.391 l -0.405,0.325 c -2.948,5.437 -8.79,9.683 -10.522,15.634 -1.433,4.733 -2.38,10.224 -1.406,15.39 0.46,2.002 0.812,4.058 1.677,5.896 C -7.546,13.416 -1.866,7.33 0,0" /></g><g
           transform="translate(671.2632,566.6911)"
           id="g142"><path
             id="path144"
             style="fill:#00caff;fill-opacity:1;fill-rule:nonzero;stroke:none"
             d="m 0,0 c -0.19,-3.651 -1.38,-6.897 -3.3,-9.818 h 0.324 C -0.378,-6.41 1.651,-2.786 4.68,0.461 9.387,5.004 14.172,9.656 14.796,15.959 16.391,5.437 10.495,-3.785 1.759,-9.736 -1.839,-12.09 -5.49,-14.28 -8.953,-16.958 v 0.323 c 5.302,8.819 2.704,20.909 5.977,30.593 l 1.218,3.245 C -2.435,11.171 0.189,6.06 0,0" /></g><g
           transform="translate(555.1196,554.7364)"
           id="g146"><path
             id="path148"
             style="fill:#00caff;fill-opacity:1;fill-rule:nonzero;stroke:none"
             d="m 0,0 c 0.569,-2.001 1.732,-3.787 2.488,-5.707 -8.06,5.491 -19.041,10.711 -22.611,20.772 -1.515,3.462 -1.677,7.764 -1.353,11.74 0.65,-8.954 10.278,-13.687 14.741,-21.097 1.056,-1.516 1.975,-3.193 3.381,-4.464 -0.216,0.947 -1.108,1.758 -1.433,2.733 -1.569,3.11 -2.137,6.815 -1.759,10.575 0.434,4.571 2.354,8.818 1.623,13.632 C -1,19.718 -2.19,9.169 0,0" /></g><g
           transform="translate(659.254,548.0553)"
           id="g150"><path
             id="path152"
             style="fill:#00caff;fill-opacity:1;fill-rule:nonzero;stroke:none"
             d="m 0,0 c -1.381,-2.406 -3.354,-4.733 -5.518,-6.626 0.704,0.027 1.325,0.648 1.948,1.055 5.815,5.788 13.389,7.411 19.663,12.117 2.516,2.002 4.815,4.626 5.924,7.465 C 20.827,4.409 11.279,-4.598 2.272,-7.464 c -4.653,-1.245 -9.63,-1.65 -14.146,-3.192 7.655,6.572 7.222,16.743 12.334,24.478 1.623,2.191 2.975,4.49 4.869,6.572 C 2.218,14.147 3.57,6.059 0,0" /></g><g
           transform="translate(562.6663,556.1705)"
           id="g154"><path
             id="path156"
             style="fill:#00caff;fill-opacity:1;fill-rule:nonzero;stroke:none"
             d="m 0,0 c 2.705,-6.654 3.733,-14.173 9.981,-19.205 -6.762,2.218 -14.687,1.597 -20.638,5.762 -6.519,4.003 -12.334,10.792 -13.551,18.257 4.49,-10.169 15.742,-11.008 23.288,-17.202 1.38,-1.218 2.84,-2.272 4.409,-3.003 l 0.082,0.081 c -1.732,1.568 -3.734,3.355 -4.951,5.383 -4.408,6.14 -2.867,14.741 -6.167,21.34 C -4.544,7.818 -1.812,4.084 0,0" /></g><g
           transform="translate(642.8901,536.3713)"
           id="g158"><path
             id="path160"
             style="fill:#00caff;fill-opacity:1;fill-rule:nonzero;stroke:none"
             d="m 0,0 c -1.649,-1.082 -3.733,-1.271 -5.436,-2.083 2.434,-0.053 4.651,0.812 7.058,1.055 C 10.549,0.379 20.773,-1.055 27.02,6.546 24.695,1.244 18.88,-3.192 13.579,-5.058 4.463,-8.492 -4.707,-4.274 -13.443,-2.867 l -1.676,0.217 v 0.054 c 4.165,0.946 8.222,2.19 11.549,5.192 C 1.325,7.303 5.68,12.144 11.117,15.85 7.086,10.684 6.654,3.327 0,0" /></g><g
           transform="translate(580.3282,538.8316)"
           id="g162"><path
             id="path164"
             style="fill:#00caff;fill-opacity:1;fill-rule:nonzero;stroke:none"
             d="m 0,0 c 3.462,-3.029 7.628,-4.435 12.01,-5.327 -1.055,-0.38 -2.434,-0.271 -3.571,-0.568 -7.871,-1.949 -16.634,-5.114 -24.992,-2.272 -5.437,1.703 -11.035,6.004 -13.767,11.36 7.195,-8.197 18.96,-5.465 28.562,-7.602 1.353,-0.188 2.597,-0.729 4.03,-0.512 -1.136,0.73 -2.731,0.648 -3.976,1.297 -7.519,2.651 -8.628,10.793 -12.712,16.283 C -9.196,9.197 -4.814,4.517 0,0" /></g><g
           transform="translate(639.0764,527.7428)"
           id="g166"><path
             id="path168"
             style="fill:#00caff;fill-opacity:1;fill-rule:nonzero;stroke:none"
             d="m 0,0 c 5.841,-2.163 13.416,-1.569 18.419,2.002 -2.569,-3.219 -6.085,-5.518 -9.736,-6.817 -8.115,-3.03 -16.581,0.135 -22.91,4.951 -2.57,1.622 -4.841,3.976 -8.168,3.759 -1.191,0.027 -2.354,-0.027 -3.382,-0.325 6.167,-2.867 11.875,-6.815 17.121,-11.873 -0.891,-1.001 -2.028,-1.949 -3.109,-2.813 -5.032,5.435 -10.63,10.656 -16.879,13.713 -1.217,-0.162 -2.379,-0.893 -3.489,-1.489 -5.085,-3.218 -10.116,-7.356 -13.903,-12.414 l -3.246,2.677 c 5.194,5.249 10.928,9.332 17.204,12.254 -6.168,1.947 -10.198,-3.219 -14.877,-5.843 -5.464,-3.813 -13.307,-5.599 -19.907,-2.975 -3.544,1.353 -6.979,3.326 -9.548,6.545 5.193,-3.57 12.929,-3.949 18.825,-1.623 7.926,3.435 16.148,7.79 25.695,5.707 1.489,-0.027 2.949,-1.514 4.356,-0.243 7.086,1.84 15.119,0.569 21.231,-2.677 z" /></g><g
           transform="translate(395.2778,263.5672)"
           id="g170"><path
             id="path172"
             style="fill:#00caff;fill-opacity:1;fill-rule:nonzero;stroke:none"
             d="m 0,0 h 61.446 c -1.063,-49.403 -28.333,-74.195 -64.987,-74.195 -39.489,0 -64.811,33.29 -64.811,69.062 0,35.768 25.322,69.061 64.811,69.061 43.74,0 55.779,-27.27 60.74,-41.438 L 29.396,20.721 c -4.781,11.686 -14.345,19.478 -32.937,19.478 -20.894,0 -37.188,-17 -37.188,-45.332 0,-23.906 15.051,-45.333 38.96,-45.333 21.424,0 31.341,15.227 33.643,27.8 H 0 Z" /></g><g
           transform="translate(719.2723,324.6487)"
           id="g174"><path
             id="path176"
             style="fill:#00caff;fill-opacity:1;fill-rule:nonzero;stroke:none"
             d="m 0,0 h 26.489 v -108.08 h 51.042 v -24.725 H 0 Z" /></g><g
           transform="translate(871.1433,289.6844)"
           id="g178"><path
             id="path180"
             style="fill:#00caff;fill-opacity:1;fill-rule:nonzero;stroke:none"
             d="m 0,0 c 0,9.183 -8.831,14.834 -19.426,14.834 -13.246,0 -21.193,-5.827 -21.193,-14.658 0,-9.183 8.831,-13.598 15.366,-15.718 l 24.369,-7.771 c 17.662,-5.651 30.2,-15.894 30.2,-36.38 0,-16.25 -11.658,-40.619 -48.39,-40.619 -46.094,0 -50.334,29.845 -50.334,41.679 l 26.493,0.528 c 0,-14.126 11.127,-19.602 24.017,-19.602 9.007,0 21.722,4.416 21.722,14.659 0,7.063 -3,10.771 -16.07,15.542 l -28.965,10.419 c -14.654,5.295 -24.901,18.189 -24.901,33.2 0,16.954 11.659,41.327 46.095,41.327 40.975,0 47.506,-27.197 47.506,-36.912 z" /></g><g
           transform="translate(499.0698,274.7588)"
           id="g182"><path
             id="path184"
             style="fill:#5eba47;fill-opacity:1;fill-rule:nonzero;stroke:none"
             d="m 0,0 c 1.63,2.77 3.607,5.309 5.874,7.557 l -19.262,21.122 c -4.846,-4.631 -8.979,-10 -12.23,-15.918 z" /></g><g
           transform="translate(546.2909,289.6803)"
           id="g186"><path
             id="path188"
             style="fill:#e4b633;fill-opacity:1;fill-rule:nonzero;stroke:none"
             d="M 0,0 C 2.917,-1.336 5.629,-3.041 8.078,-5.061 L 27.395,16.03 c -5.088,4.387 -10.857,8.007 -17.12,10.68 z" /></g><g
           transform="translate(590.5286,283.3299)"
           id="g190"><path
             id="path192"
             style="fill:#c4202e;fill-opacity:1;fill-rule:nonzero;stroke:none"
             d="m 0,0 -25.602,-12.763 c 1.223,-2.853 2.092,-5.884 2.563,-9.046 l 28.48,2.689 C 4.601,-12.378 2.735,-5.949 0,0" /></g><g
           transform="translate(563.0894,274.2668)"
           id="g194"><path
             id="path196"
             style="fill:#4b9e46;fill-opacity:1;fill-rule:nonzero;stroke:none"
             d="M 0,0 25.599,12.761 C 22.428,18.653 18.384,24.007 13.637,28.644 L -5.68,7.559 C -3.48,5.298 -1.566,2.761 0,0" /></g><g
           transform="translate(493.9819,256.0737)"
           id="g198"><path
             id="path200"
             style="fill:#407f44;fill-opacity:1;fill-rule:nonzero;stroke:none"
             d="M 0,0 C 0,0.576 0.019,1.153 0.045,1.724 L -28.442,4.275 C -28.531,2.862 -28.585,1.438 -28.585,0 c 0,-5.464 0.678,-10.771 1.938,-15.845 L 0.866,-7.952 C 0.302,-5.389 0,-2.73 0,0" /></g><g
           transform="translate(559.5043,232.6606)"
           id="g202"><path
             id="path204"
             style="fill:#f9c213;fill-opacity:1;fill-rule:nonzero;stroke:none"
             d="M 0,0 C -2.025,-2.464 -4.362,-4.661 -6.947,-6.535 L 8.094,-30.887 c 5.581,3.782 10.551,8.402 14.729,13.678 z" /></g><g
           transform="translate(567.8877,256.0737)"
           id="g206"><path
             id="path208"
             style="fill:#ee402b;fill-opacity:1;fill-rule:nonzero;stroke:none"
             d="m 0,0 c 0,-2.697 -0.29,-5.327 -0.847,-7.86 l 27.509,-7.904 c 1.255,5.052 1.923,10.332 1.923,15.764 0,1.35 -0.044,2.689 -0.127,4.023 L -0.026,1.332 C -0.01,0.887 0,0.446 0,0" /></g><g
           transform="translate(502.8269,232.1161)"
           id="g210"><path
             id="path212"
             style="fill:#f89d28;fill-opacity:1;fill-rule:nonzero;stroke:none"
             d="m 0,0 -22.768,-17.305 c 4.234,-5.213 9.249,-9.758 14.869,-13.469 L 7.138,-6.449 C 4.489,-4.617 2.089,-2.445 0,0" /></g><g
           transform="translate(494.4435,261.9083)"
           id="g214"><path
             id="path216"
             style="fill:#1995d3;fill-opacity:1;fill-rule:nonzero;stroke:none"
             d="m 0,0 c 0.509,3.217 1.442,6.295 2.729,9.176 l -25.593,12.75 C -25.691,15.909 -27.63,9.394 -28.512,2.557 Z" /></g><g
           transform="translate(564.0986,199.5699)"
           id="g218"><path
             id="path220"
             style="fill:#a11c43;fill-opacity:1;fill-rule:nonzero;stroke:none"
             d="m 0,0 -15.018,24.321 c -2.729,-1.542 -5.668,-2.75 -8.766,-3.562 l 5.301,-28.133 C -11.889,-5.858 -5.67,-3.343 0,0" /></g><g
           transform="translate(565.9455,244.2311)"
           id="g222"><path
             id="path224"
             style="fill:#27bce1;fill-opacity:1;fill-rule:nonzero;stroke:none"
             d="m 0,0 c -0.997,-2.926 -2.343,-5.687 -3.999,-8.234 l 22.842,-17.228 c 3.709,5.333 6.641,11.239 8.644,17.563 z" /></g><g
           transform="translate(536.2646,219.5078)"
           id="g226"><path
             id="path228"
             style="fill:#f16a2b;fill-opacity:1;fill-rule:nonzero;stroke:none"
             d="m 0,0 c -1.738,-0.252 -3.518,-0.389 -5.33,-0.389 -1.455,0 -2.891,0.091 -4.301,0.255 l -5.299,-28.133 c 3.137,-0.46 6.34,-0.704 9.6,-0.704 3.617,0 7.167,0.298 10.625,0.863 z" /></g><g
           transform="translate(533.2972,292.9534)"
           id="g230"><path
             id="path232"
             style="fill:#e7223b;fill-opacity:1;fill-rule:nonzero;stroke:none"
             d="M 0,0 C 3.174,-0.204 6.241,-0.807 9.144,-1.766 L 19.419,24.937 C 13.306,27.095 6.785,28.374 0,28.612 Z" /></g><g
           transform="translate(522.561,220.0777)"
           id="g234"><path
             id="path236"
             style="fill:#dc1768;fill-opacity:1;fill-rule:nonzero;stroke:none"
             d="M 0,0 C -3.203,0.747 -6.247,1.91 -9.071,3.431 L -24.118,-20.907 C -18.33,-24.22 -12,-26.674 -5.292,-28.103 Z" /></g><g
           transform="translate(519.8292,291.3199)"
           id="g238"><path
             id="path240"
             style="fill:#17486a;fill-opacity:1;fill-rule:nonzero;stroke:none"
             d="M 0,0 C 2.967,0.938 6.097,1.509 9.335,1.66 V 30.268 C 2.458,30.085 -4.149,28.832 -10.345,26.683 Z" /></g><g
           transform="translate(500.3211,235.4037)"
           id="g242"><path
             id="path244"
             style="fill:#c6972d;fill-opacity:1;fill-rule:nonzero;stroke:none"
             d="m 0,0 c -1.815,2.681 -3.295,5.616 -4.359,8.738 l -27.493,-7.89 c 2.082,-6.557 5.167,-12.667 9.081,-18.153 z" /></g><g
           transform="translate(508.0391,285.0588)"
           id="g246"><path
             id="path248"
             style="fill:#03699c;fill-opacity:1;fill-rule:nonzero;stroke:none"
             d="M 0,0 C 2.417,1.914 5.075,3.526 7.925,4.795 L -2.413,31.465 C -8.571,28.88 -14.245,25.379 -19.276,21.138 Z" /></g><g
           transform="translate(651.4868,294.0964)"
           id="g250"><path
             id="path252"
             style="fill:#00caff;fill-opacity:1;fill-rule:nonzero;stroke:none"
             d="m 0,0 h -0.357 l -17.007,-52.273 h 34.55 z m 24.349,-74.113 h -49.23 l -8.773,-28.106 h -29 L -13.606,32.403 H 14.68 L 63.014,-102.219 H 33.476 Z" /></g></g></g></g></svg>